# xmcd
#
# Track frame offsets:
#	150
#	39369
#	63710
#	86326
#	139741
#	150703
#	159945
#	202682
#	230029
#	268564
#
# Disc length: 4175 seconds
#
# Revision: 2
# Processed by: cddbd v1.5.2PL0 Copyright (c) Steve Scherf et al.
# Submitted via: audiograbber 1.83.01
#
DISCID=7a104d0a
DTITLE=Diverse - Jazz Gipfel Tufa Trier 05
DYEAR=2005
DGENRE=Jazz
TTITLE0=NilsWills - Lullaby (Rosemary's Baby) 
TTITLE1=Groove Improve - Crawling Al
TTITLE2=FH-Band - Blue Steps
TTITLE3=Horn and Strings - Maiden Voyage
TTITLE4=H&D - My Romance 
TTITLE5=H&D - The Way You Look Tonight
TTITLE6=Bach Band - Prince Of Darkness
TTITLE7=4 in 1 - Ballade Nr. 3
TTITLE8=LBB Rhythm Kings - Crashtest
TTITLE9=Helmut Becker Band - Dugi 3
EXTD=© PORTABILE MUSIC TRIER (PMT) - LC 15326\nKat.-Nr./Cat. No. pmt-05-01
EXTT0=
EXTT1=
EXTT2=
EXTT3=
EXTT4=
EXTT5=
EXTT6=
EXTT7=
EXTT8=
EXTT9=
PLAYORDER=
